<svg width="215" height="170" viewBox="0 0 215 170" fill="none" xmlns="http://www.w3.org/2000/svg">
<ellipse cx="107.059" cy="85" rx="107.059" ry="85" fill="#404040"/>
<ellipse cx="107.5" cy="85" rx="96.0451" ry="77.0763" fill="black"/>
<ellipse cx="107.059" cy="85" rx="75.3381" ry="58.3475" fill="#929292"/>
<ellipse cx="107.5" cy="85" rx="64.3238" ry="51.1441" fill="#404040"/>
<path d="M71.373 43.9407L94.7235 87.1452L70.4918 126.059" stroke="black" stroke-width="10"/>
<path d="M141.886 43.9407L118.536 87.1452L142.767 126.059" stroke="black" stroke-width="10"/>
<ellipse cx="5.72746" cy="87.161" rx="5.72746" ry="5.04237" fill="#77AB09"/>
<ellipse cx="209.273" cy="87.161" rx="5.72746" ry="5.04237" fill="#77AB09"/>
<ellipse cx="107.059" cy="166.038" rx="5.72746" ry="3.96186" fill="#77AB09"/>
<ellipse cx="107.059" cy="3.96186" rx="5.72746" ry="3.96186" fill="#77AB09"/>
<path d="M104.857 34.5763C90.3958 34.3557 82.5638 34.5761 75.7787 43.9407L98.6885 85.7203L75.7787 128.22C82.4575 132.981 89.0066 134.651 104.857 136.144C122.13 134.243 130.363 132.727 139.221 128.22L114.549 85.7203L139.221 43.9407C135.973 37.22 126.407 35.7845 104.857 34.5763Z" fill="#5C8800" stroke="#77AB09"/>
</svg>
